# xmcd
#
# Track frame offsets:
#	150
#	51122
#	75990
#	108794
#	131378
#	169610
#
# Disc length: 2890 seconds
#
# Revision: 1
# Processed by: cddbd v1.5.1PL0 Copyright (c) Steve Scherf et al.
# Submitted via: CDex 1.50Beta5
#
DISCID=390b4806
DTITLE=水鏡 - 水鏡
DYEAR=1900
DGENRE=Rock
TTITLE0=さくら
TTITLE1=春の苑
TTITLE2=涼風
TTITLE3=科戸の風
TTITLE4=篁
TTITLE5=雪虫
EXTD=
EXTT0=
EXTT1=
EXTT2=
EXTT3=
EXTT4=
EXTT5=
PLAYORDER=
